<?xml version="1.0" standalone="no"?>
<!DOCTYPE svg PUBLIC "-//W3C//DTD SVG 20010904//EN"
 "http://www.w3.org/TR/2001/REC-SVG-20010904/DTD/svg10.dtd">
<svg version="1.0" xmlns="http://www.w3.org/2000/svg"
 width="48.000000pt" height="48.000000pt" viewBox="0 0 48.000000 48.000000"
 preserveAspectRatio="xMidYMid meet">
<metadata>
Created by potrace 1.16, written by Peter Selinger 2001-2019
</metadata>
<g transform="translate(0.000000,48.000000) scale(0.100000,-0.100000)"
fill="#000000" stroke="none">
<path d="M0 240 l0 -240 240 0 240 0 0 240 0 240 -240 0 -240 0 0 -240z m340
185 c0 -25 5 -45 10 -45 6 0 10 16 10 35 0 19 2 35 4 35 2 0 11 3 20 6 13 5
16 -1 16 -27 0 -18 6 -40 14 -48 19 -22 36 -78 35 -115 0 -27 -2 -25 -13 17
-33 122 -111 113 -196 -23 -12 -19 -19 -26 -14 -15 11 28 8 84 -7 101 -46 55
-121 -55 -84 -125 13 -27 13 -30 -9 -52 -13 -13 -35 -32 -50 -42 -31 -21 -38
-72 -8 -63 9 3 40 10 67 17 28 6 56 19 63 27 11 14 12 14 12 0 0 -9 3 -25 6
-35 4 -13 3 -14 -3 -5 -8 10 -24 9 -84 -8 -40 -11 -84 -20 -96 -20 l-23 0 0
170 c0 153 2 171 17 177 19 8 293 81 306 82 4 1 7 -19 7 -44z m40 -185 c0 -5
-4 -10 -10 -10 -5 0 -10 -5 -10 -12 0 -14 -30 -48 -42 -48 -17 0 -7 32 17 55
25 26 45 32 45 15z m52 -42 c-8 -8 -9 -4 -5 13 4 13 8 18 11 10 2 -7 -1 -18
-6 -23z m-20 -22 c24 15 -14 -35 -56 -74 -35 -32 -53 -42 -80 -42 -19 0 -38 4
-41 10 -3 5 0 7 9 4 10 -4 13 0 10 14 -7 24 41 57 78 53 18 -2 32 5 45 22 10
14 20 21 21 16 2 -5 8 -6 14 -3z m-247 -131 c-22 -8 -49 -13 -60 -13 -11 0 0
6 25 13 59 17 87 17 35 0z"/>
</g>
</svg>
